<svg xmlns="http://www.w3.org/2000/svg" xmlns:xlink="http://www.w3.org/1999/xlink" viewBox="0 0 24.81 24.82"><defs><style>.cls-1,.cls-2{fill:none;}.cls-1{clip-rule:evenodd;}.cls-3{clip-path:url(#clip-path);}.cls-4{clip-path:url(#clip-path-2);}</style><clipPath id="clip-path" transform="translate(-963.38 -18)"><path class="cls-1" d="M971.24,23a2.86,2.86,0,0,0-2.86,2.86V35a2.87,2.87,0,0,0,2.86,2.86h9.08A2.87,2.87,0,0,0,983.19,35v-9.1A2.87,2.87,0,0,0,980.32,23Zm9.91,1.71h.32v2.51H979V24.71Zm-7.48,4.18a2.61,2.61,0,0,1,4.72,1.52,2.61,2.61,0,1,1-5.21,0A2.58,2.58,0,0,1,973.67,28.89ZM981.74,35a1.41,1.41,0,0,1-1.42,1.41h-9.08A1.42,1.42,0,0,1,969.82,35V28.89H972a4.05,4.05,0,1,0,7.5,0h2.21Z"/></clipPath><clipPath id="clip-path-2" transform="translate(-963.38 -18)"><rect class="cls-2" width="1024" height="783"/></clipPath></defs><title>instagram</title><g id="Capa_2" data-name="Capa 2"><g id="Capa_3" data-name="Capa 3"><g class="cls-3"><g class="cls-4"><rect width="24.81" height="24.82"/></g></g></g></g></svg>