<svg xmlns="http://www.w3.org/2000/svg" xmlns:xlink="http://www.w3.org/1999/xlink" viewBox="0 0 25.22 22.5"><defs><style>.cls-1,.cls-2{fill:none;}.cls-1{clip-rule:evenodd;}.cls-3{clip-path:url(#clip-path);}.cls-4{clip-path:url(#clip-path-2);}</style><clipPath id="clip-path" transform="translate(-930.49 -18.83)"><path class="cls-1" d="M948.92,25.81a3.16,3.16,0,0,0,1.37-1.75,6,6,0,0,1-2,.77,3.11,3.11,0,0,0-5.4,2.16,2.84,2.84,0,0,0,.08.72,8.86,8.86,0,0,1-6.44-3.3,3.18,3.18,0,0,0,1,4.21,3,3,0,0,1-1.42-.39v0a3.15,3.15,0,0,0,2.51,3.09,2.87,2.87,0,0,1-.83.11,2.78,2.78,0,0,1-.58,0,3.13,3.13,0,0,0,2.91,2.19A6.19,6.19,0,0,1,936.23,35a6,6,0,0,1-.74,0,8.87,8.87,0,0,0,13.67-7.56V27a6.2,6.2,0,0,0,1.55-1.64A6.34,6.34,0,0,1,948.92,25.81Z"/></clipPath><clipPath id="clip-path-2" transform="translate(-930.49 -18.83)"><rect class="cls-2" width="1024" height="783"/></clipPath></defs><title>Recurso 5</title><g id="Capa_2" data-name="Capa 2"><g id="Capa_3" data-name="Capa 3"><g class="cls-3"><g class="cls-4"><rect width="25.22" height="22.5"/></g></g></g></g></svg>